<svg width="19.000000" height="19.000000" viewBox="0 0 19 19" fill="none" xmlns="http://www.w3.org/2000/svg" xmlns:xlink="http://www.w3.org/1999/xlink">
	<desc>
			Created with Pixso.
	</desc>
	<g clip-path="url(#clip0_3)">
		<path d="M9.5 1C14.26 1 18 4.73999 18 9.5C18 14.26 14.26 18 9.5 18C4.73999 18 1 14.26 1 9.5C1 4.73999 4.73999 1 9.5 1L9.5 1Z" fill-rule="nonzero" fill="#FFFFFF"/>
		<path d="M18 9.5C18 14.26 14.26 18 9.5 18C4.73999 18 1 14.26 1 9.5C1 4.73999 4.73999 1 9.5 1C14.26 1 18 4.73999 18 9.5L18 9.5Z" stroke="#3B93B4" stroke-width="2.000000"/>
	</g>
	<defs>
		<clipPath id="clip0_3">
			<rect width="19.000000" height="19.000000" fill="white"/>
		</clipPath>
	</defs>
</svg>
