<svg t="1668043268866" class="icon" viewBox="0 0 1024 1024" version="1.1" xmlns="http://www.w3.org/2000/svg" p-id="13795" width="200" height="200"><path d="M870.791 761.964h-36.042v72.082c0 39.812-32.269 72.085-72.085 72.085h-612.715c-39.815 0-72.089-32.272-72.089-72.085v-504.59c0-39.812 32.272-72.085 72.089-72.085h36.038v-72.089c0-39.812 32.272-72.082 72.085-72.082h612.718c39.812 0 72.085 32.269 72.085 72.082v504.592c0 39.814-32.272 72.090-72.085 72.090zM149.95 293.41c-19.914 0-36.046 16.14-36.046 36.046v504.589c0 19.905 16.132 36.046 36.046 36.046h612.715c19.905 0 36.038-16.14 36.038-36.046v-504.589c0-19.905-16.132-36.046-36.038-36.046h-612.715zM906.838 185.283c0-19.905-16.135-36.038-36.046-36.038h-612.72c-19.902 0-36.038 16.132-36.038 36.038v72.089h540.63c39.815 0 72.085 32.272 72.085 72.085v396.461h36.042c19.91 0 36.046-16.135 36.046-36.042v-504.593zM582.45 617.792h-72.089v144.173h-108.123v-144.173h-72.084v36.046h-72.089v-216.254h144.173v-72.089h108.123v72.089h144.173v216.254h-72.085v-36.046zM402.239 473.621h-72.084v108.127h72.085v-108.127zM582.45 473.621h-72.089v108.127h72.089v-108.127z" p-id="13796" fill="#0172D2"></path></svg>