<svg t="1668043450490" class="icon" viewBox="0 0 1024 1024" version="1.1" xmlns="http://www.w3.org/2000/svg" p-id="14046" width="200" height="200"><path d="M874.749 760.229h-36.621v73.245c0 40.455-32.801 73.249-73.249 73.249h-622.622c-40.448 0-73.241-32.793-73.241-73.249v-512.738c0-40.455 32.793-73.249 73.241-73.249h36.627v-73.252c0-40.455 32.793-73.245 73.252-73.245h622.611c40.46 0 73.252 32.789 73.252 73.245v512.741c0 40.458-32.793 73.253-73.252 73.253zM142.257 284.108c-20.224 0-36.621 16.4-36.621 36.627v512.738c0 20.227 16.397 36.627 36.621 36.627h622.622c20.224 0 36.621-16.4 36.621-36.627v-512.738c0-20.227-16.397-36.627-36.621-36.627h-622.622zM911.374 174.235c0-20.227-16.397-36.621-36.624-36.621h-622.612c-20.23 0-36.627 16.394-36.627 36.621v73.252h549.371c40.448 0 73.249 32.793 73.249 73.249v402.864h36.621c20.227 0 36.624-16.397 36.624-36.624v-512.743zM618.378 577.103c0 0 4.262-36.621-36.627-36.621-16.672 0-36.621 8.017-36.621 36.621v146.498h-73.249v-219.746c0 0 69.371 0 146.498 0-2.187 0 73.249-4.516 73.249 73.249v146.498h-73.249v-146.499zM215.51 393.982h219.747v36.627h-146.498v109.873h109.87v36.621h-109.87v109.873h146.498v36.624h-219.747v-329.619z" p-id="14047" fill="#0172D2"></path></svg>