<?xml version="1.0" encoding="utf-8"?>
<svg version="1.1" xmlns:xlink="http://www.w3.org/1999/xlink" width="253px" height="50px" xmlns="http://www.w3.org/2000/svg">
  <g transform="matrix(1 0 0 1 951 307 )">
    <path d="M -717.68940838421 -306.5  C -717.68940838421 -306.5  -714.248126798051 -306.159952412435  -714.248126798051 -306.159952412435  C -714.248126798051 -306.159952412435  -698.537365775475 -282  -698.537365775475 -282  C -698.537365775475 -282  -714.248126798051 -257.840047587565  -714.248126798051 -257.840047587565  C -714.248126798051 -257.840047587565  -717.68940838421 -257.5  -717.68940838421 -257.5  C -717.68940838421 -257.5  -946 -257.5  -946 -257.5  C -948.52 -257.5  -950.5 -259.48  -950.5 -262  C -950.5 -262  -950.5 -302  -950.5 -302  C -950.5 -304.52  -948.52 -306.5  -946 -306.5  C -946 -306.5  -717.68940838421 -306.5  -717.68940838421 -306.5  Z " fill-rule="nonzero" fill="#f2f2f2" stroke="none" />
    <path d="M -717.68940838421 -306.5  C -717.68940838421 -306.5  -714.248126798051 -306.159952412435  -714.248126798051 -306.159952412435  C -714.248126798051 -306.159952412435  -698.537365775475 -282  -698.537365775475 -282  C -698.537365775475 -282  -714.248126798051 -257.840047587565  -714.248126798051 -257.840047587565  C -714.248126798051 -257.840047587565  -717.68940838421 -257.5  -717.68940838421 -257.5  C -717.68940838421 -257.5  -946 -257.5  -946 -257.5  C -948.52 -257.5  -950.5 -259.48  -950.5 -262  C -950.5 -262  -950.5 -302  -950.5 -302  C -950.5 -304.52  -948.52 -306.5  -946 -306.5  C -946 -306.5  -717.68940838421 -306.5  -717.68940838421 -306.5  Z " stroke-width="1" stroke="#e4e4e4" fill="none" />
  </g>
</svg>