<svg xml:space="preserve" style="enable-background:new 0 0 442 274;" viewBox="0 0 442 274" y="0px" x="0px" xmlns:xlink="http://www.w3.org/1999/xlink" xmlns="http://www.w3.org/2000/svg" id="图层_1" version="1.1">
<style type="text/css">
	.st0{fill-rule:evenodd;clip-rule:evenodd;fill:#F1F6FB;}
	.st1{fill-rule:evenodd;clip-rule:evenodd;fill:#CDE0FB;}
	.st2{fill-rule:evenodd;clip-rule:evenodd;fill:#F5F9FF;}
	.st3{fill-rule:evenodd;clip-rule:evenodd;fill:#DFEBF9;}
	.st4{fill-rule:evenodd;clip-rule:evenodd;fill:#AFCDFB;}
	.st5{fill:#3A6BEA;}
	.st6{fill-rule:evenodd;clip-rule:evenodd;fill:#A8D29F;}
	.st7{opacity:0.5;fill-rule:evenodd;clip-rule:evenodd;fill:#FFFFFE;}
	.st8{fill:#D3E3FC;}
	.st9{fill-rule:evenodd;clip-rule:evenodd;fill:#F7F9FE;}
	.st10{fill:#91B9F7;}
	.st11{fill:#2A8EF2;}
	.st12{fill-rule:evenodd;clip-rule:evenodd;fill:#2A8EF2;}
	.st13{fill-rule:evenodd;clip-rule:evenodd;fill:#FFFFFE;}
	.st14{opacity:0.6;fill-rule:evenodd;clip-rule:evenodd;fill:#EBF0FF;}
	.st15{enable-background:new    ;}
	.st16{fill-rule:evenodd;clip-rule:evenodd;fill:#FFFFFF;}
	.st17{fill:#AFCDFB;}
	.st18{fill-rule:evenodd;clip-rule:evenodd;fill:#001E48;}
	.st19{fill-rule:evenodd;clip-rule:evenodd;fill:#2A77F2;}
	.st20{fill-rule:evenodd;clip-rule:evenodd;fill:#2D54B9;}
	.st21{fill-rule:evenodd;clip-rule:evenodd;fill:#102048;}
	.st22{fill-rule:evenodd;clip-rule:evenodd;fill:#FFECDF;}
	.st23{fill-rule:evenodd;clip-rule:evenodd;fill:#1F3C88;}
	.st24{fill-rule:evenodd;clip-rule:evenodd;fill:#3A6BEA;}
	.st25{fill-rule:evenodd;clip-rule:evenodd;fill:#527EE9;}
	.st26{fill-rule:evenodd;clip-rule:evenodd;fill:#E28B6D;}
	.st27{fill-rule:evenodd;clip-rule:evenodd;fill:#FFC957;}
</style>
<title>新建_引导插画</title>
<g id="识别异常">
	<g transform="translate(-675.000000, -297.000000)" id="新建巡检界面_暂无电站">
		<g transform="translate(676.000000, 297.000000)" id="新建_引导插画">
			<g id="编组-5">
				<path d="M376.3,162.1c0.9,2.8,16.4,5.7,24.4,2.1c0,0-6.5,24-18.7,24.3c-12.2,0.3-16.8-6.8-24.3-6.5
					c-7.5,0.3-12.7,3-8.8,4.6c4,1.6,16.4-1.3,23.1,3.2c1,0.7,1.9,1.3,2.8,1.9c0.5,0.4,1,0.7,1.5,1h-44.3c0-0.4,0-0.7,0-1
					c0-1.9-0.2-3-0.2-3s-22.9-9.6-14.8-27.3c0,0,6.8-11.1,15.1-14.7c0,0-1.7,25.2,2.9,25.2c4.7,0-0.1-28.2-0.1-28.2
					s21.4-13.7,30.4-13.9c0,0-11.2,25.8-6.7,24.6c4.5-1.1,17.5-27.4,17.5-27.4s22.7-7.1,28.1,6.4c5.4,13.5,0.1,21.2-3.2,22.4
					C397.5,156.9,375.4,159.3,376.3,162.1z" class="st0" id="Fill-43"></path>
				<path d="M186.4,1.3c0,0,13.1,23.9,17.4,24.7c4.3,0.9-7.3-22.6-7.3-22.6c8.4-0.2,28.9,11.7,28.9,11.7
					s-3.3,26.5,1.1,26.2s1.7-23.6,1.7-23.6c7.9,3,14.7,13.1,14.7,13.1c8.3,16.1-12.7,26-12.7,26s-0.9,9.2,3.9,20.2
					c0,0,1.1,2,2.2,5.5l-2.2-0.2c-0.1-0.6-0.3-1.2-0.5-1.8c0,0,0,0,0,0c0,0,0,0,0,0c-0.1-0.4-0.3-0.9-0.5-1.5c0,0,0,0,0,0
					c0,0,0,0,0,0c-0.6-1.4-1-2.4-1.2-3.1c0,0,0,0,0,0c-1.7-4.3-4.2-9.9-6.1-11.2c0,0,0.3-0.3,0.5-1c-0.2,0.3-0.4,0.6-0.5,1
					c-4.4,7.8-23.3,7.8-33.6,4.9c-10.3-2.9-5.5-5.6,0.5-10c6-4.4,17.7-2.3,21.4-3.9c3.6-1.6-1.3-3.9-8.4-3.9c-7,0-11,6.8-22.4,7.1
					C171.9,59,164.9,37,164.9,37c7.6,3,21.9-0.3,22.6-3c0.7-2.7-20-3.9-23.1-5c-3.2-1.1-8.3-8-3.9-20.7
					C164.9-4.4,186.4,1.3,186.4,1.3z" class="st1" id="Fill-44"></path>
				<path d="M314.6,6.6c0,0-5,20.5-8.1,22c-3,1.5,0.9-18.4,0.9-18.4c-6.3,1.5-19.2,14.6-19.2,14.6
					s7.7,19.2,4.4,19.9c-3.3,0.7-6-17.3-6-17.3c-5.3,3.9-8.4,12.8-8.4,12.8c-3,13.8,14.7,16.9,14.7,16.9s2.5,6.7,1.1,15.9l0,0
					c0,0-0.4,1.8-0.5,4.5l1.6-0.6c0-0.5,0-1,0-1.4c0,0,0,0,0,0c0,0,0,0,0,0c0-0.3,0.1-0.7,0.1-1.2c0,0,0,0,0,0c0,0,0,0,0,0
					c0.2-1.1,0.2-2,0.3-2.6c0,0,0,0,0,0c0.4-3.6,1.2-8.3,2.3-9.6c0,0-0.3-0.2-0.6-0.6c0.2,0.2,0.4,0.4,0.6,0.6
					c4.8,5,18.9,1.2,26-3.1c7.1-4.3,3-5.3-2.3-7.4c-5.4-2.1-13.7,1.9-16.7,1.4c-3-0.5,0.2-3.2,5.5-4.6c5.3-1.4,9.6,2.9,18.1,0.8
					c8.5-2.1,9.4-20,9.4-20c-5.1,3.8-16.4,4.2-17.5,2.4c-1.1-1.9,14.1-7,16.3-8.4c2.2-1.4,4.6-7.7-1.2-16.3
					C329.5-2,314.6,6.6,314.6,6.6z" class="st2" id="Fill-45"></path>
				<path d="M156.1,255.7c-11.9-6.5-2.8-27.2-2.8-27.2s25.7-9.3,27.3-13.5c1.5-4.1-23.5,3.6-23.5,3.6
					c1.2-8.5,16.2-27.2,16.2-27.2s25.6,7.6,26.1,3.2c0.5-4.4-23-5.6-23-5.6c4.3-7.4,15.3-12.7,15.3-12.7c17.3-5.7,23.7,17,23.7,17
					s8.9,2.4,20.6-0.7c0,0,2.2-0.8,5.8-1.3l-0.5,2.2c-0.6,0-1.2,0.1-1.8,0.2c0,0,0,0,0,0c0,0,0,0,0,0c-0.4,0.1-0.9,0.2-1.5,0.3l0,0
					c0,0,0,0,0,0c-1.5,0.4-2.5,0.6-3.3,0.7c0,0,0,0,0,0c-4.5,1-10.5,2.6-12.1,4.3c0,0-0.3-0.3-0.9-0.7c0.3,0.2,0.6,0.5,0.9,0.7
					c7,5.7,3.9,24.7-0.7,34.6c-4.6,9.9-6.4,4.7-9.8-2.1c-3.4-6.8,0.6-18.2-0.4-22.1c-1-3.9-4.1,0.7-5.2,7.8
					c-1.1,7.1,4.9,12.2,3.3,23.7c-1.6,11.5-24.5,15-24.5,15c4.2-7.2,3.3-22.1,0.8-23.3c-2.5-1.2-7.1,19.5-8.7,22.5
					C175.7,258.2,168,262.2,156.1,255.7" class="st3" id="Fill-46"></path>
				<path d="M319.6,245.6c8.3-8-3.5-23-3.5-23s-23.1-2-25.2-5.1c-2.2-3.1,20.1-2.2,20.1-2.2
					c-2.8-6.7-19.1-18.7-19.1-18.7s-19.4,11.9-20.7,8.3c-1.3-3.5,17.7-9.6,17.7-9.6c-5.1-5.2-15.3-7.1-15.3-7.1
					c-15.4-0.9-15.8,19.2-15.8,19.2s-6.8,4-17,4c0,0-2-0.2-5,0.2l0.9,1.7c0.5-0.1,1-0.2,1.5-0.2c0,0,0,0,0,0c0,0,0,0,0,0
					c0.3,0,0.8-0.1,1.3-0.1c0,0,0,0,0,0c0,0,0,0,0,0c1.3,0,2.2-0.1,2.8-0.1c0,0,0,0,0,0c3.9-0.2,9.2-0.2,10.8,0.9
					c0,0,0.2-0.3,0.6-0.8c-0.2,0.2-0.4,0.5-0.6,0.8c-4.6,6.2,2,21.1,7.9,28.3c5.9,7.1,6.3,2.4,7.6-3.9c1.3-6.3-4.4-14.8-4.4-18.2
					c0-3.4,3.5-0.3,5.9,5.2c2.4,5.6-1.4,11.1,2.3,20.2c3.8,9.1,23.3,6.9,23.3,6.9c-5-5-7.4-17.4-5.6-18.9c1.8-1.5,10,14.4,11.9,16.5
					C304.1,251.9,311.2,253.5,319.6,245.6" class="st4" id="Fill-47"></path>
				<polygon points="440.4,269 439.9,269 -0.4,268.8 -0.4,267.8 0.1,267.8 440.4,268" class="st5"></polygon>
				<path d="M38.6,268.4c1-0.9-0.7-2.9-2.5-3c-0.8-0.1-1.8,0.1-2.9,0.4c-0.3-3.6-1.7-19.6-7.3-18.9
					c-6.3,0.7,0,7,1.8,10.8c1.3,2.8,2.7,6.8,3.3,8.6c-0.5,0.1-1,0.2-1.6,0.3c-0.8-2.6-3.9-11.5-7.8-11c-4.6,0.6-2.8,4.2,0.5,6.3
					c2.4,1.6,5.3,3.8,6.7,4.8c-1.2,0.2-2.4,0.3-3.7,0.3c-3.2-0.1-4.8,0.9-5.4,1.4H38.6z" class="st6" id="Fill-141"></path>
				<path d="M406.6,268.4c-1-0.9,0.7-2.9,2.5-3c0.8-0.1,1.8,0.1,2.9,0.3c0.3-3.5,1.7-19.4,7.3-18.8
					c6.3,0.7,0,7-1.8,10.7c-1.3,2.8-2.7,6.7-3.3,8.6c0.5,0.1,1,0.2,1.6,0.3c0.8-2.6,3.9-11.4,7.8-10.9c4.6,0.6,2.8,4.1-0.5,6.2
					s-5.3,3.7-6.7,4.8c1.2,0.2,2.4,0.3,3.7,0.3c3.2-0.1,4.8,0.9,5.4,1.4H406.6z" class="st6" id="Fill-142"></path>
			</g>
			<g transform="translate(134.000000, 44.161172)" id="编组-2">
				<g>
					<path d="M8.2,186.5h213.3c4.4,0,8-3.6,8-8V10.3c0-4.4-3.6-8-8-8H10.2c-5.5,0-10,4.5-10,10v166.2
						C0.2,182.9,3.8,186.5,8.2,186.5z" class="st7" id="Fill-69_1_"></path>
					<path d="M221.4,186.8H8.2c-4.5,0-8.2-3.7-8.2-8.2V12.3C-0.1,6.6,4.5,2,10.2,2h211.3c4.5,0,8.2,3.7,8.2,8.2v168.2
						C229.7,183.1,226,186.8,221.4,186.8z M10.2,2.5c-5.4,0-9.8,4.4-9.8,9.8v166.2c0,4.3,3.5,7.8,7.8,7.8h213.3
						c4.3,0,7.8-3.5,7.8-7.8V10.3c0-4.3-3.5-7.8-7.8-7.8H10.2z" class="st8"></path>
				</g>
				<g>
					<path d="M22.9,50.5h181c3.6,0,6.6,2.9,6.6,6.6l0,0c0,3.6-2.9,6.6-6.6,6.6h-181
						c-3.6,0-6.6-2.9-6.6-6.6l0,0C16.4,53.5,19.3,50.5,22.9,50.5z" class="st9" id="矩形_1_"></path>
					<path d="M203.9,63.9h-181c-3.8,0-6.8-3.1-6.8-6.8s3.1-6.8,6.8-6.8h181c3.8,0,6.8,3.1,6.8,6.8
						S207.7,63.9,203.9,63.9z M22.9,50.8c-3.5,0-6.3,2.8-6.3,6.3s2.8,6.3,6.3,6.3h181c3.5,0,6.3-2.8,6.3-6.3s-2.8-6.3-6.3-6.3H22.9z" class="st10"></path>
				</g>
				<g>
					<path d="M22.9,72.3h44.6c3.5,0,6.3,2.8,6.3,6.3l0,0c0,3.5-2.8,6.3-6.3,6.3H22.9c-3.5,0-6.3-2.8-6.3-6.3l0,0
						C16.6,75.1,19.4,72.3,22.9,72.3z" class="st9"></path>
					<path d="M67.5,85.4H22.9c-3.8,0-6.8-3.1-6.8-6.8c0-3.8,3.1-6.8,6.8-6.8h44.6c3.8,0,6.8,3.1,6.8,6.8
						C74.3,82.3,71.3,85.4,67.5,85.4z M22.9,72.8c-3.2,0-5.8,2.6-5.8,5.8s2.6,5.8,5.8,5.8h44.6c3.2,0,5.8-2.6,5.8-5.8
						s-2.6-5.8-5.8-5.8H22.9z" class="st10"></path>
				</g>
				<g>
					<path d="M22.9,72h44.6c3.6,0,6.6,2.9,6.6,6.6l0,0c0,3.6-2.9,6.6-6.6,6.6H22.9c-3.6,0-6.6-2.9-6.6-6.6l0,0
						C16.4,75,19.3,72,22.9,72z" class="st9"></path>
					<path d="M67.5,85.4H22.9c-3.8,0-6.8-3.1-6.8-6.8c0-3.8,3.1-6.8,6.8-6.8h44.6c3.8,0,6.8,3.1,6.8,6.8
						C74.3,82.3,71.3,85.4,67.5,85.4z M22.9,72.3c-3.5,0-6.3,2.8-6.3,6.3c0,3.5,2.8,6.3,6.3,6.3h44.6c3.5,0,6.3-2.8,6.3-6.3
						c0-3.5-2.8-6.3-6.3-6.3H22.9z" class="st10"></path>
				</g>
				<g>
					<path d="M22.9,94.2h181.1c3.6,0,6.6,2.9,6.6,6.6l0,0c0,3.6-2.9,6.6-6.6,6.6H22.9c-3.6,0-6.6-2.9-6.6-6.6l0,0
						C16.4,97.1,19.3,94.2,22.9,94.2z" class="st9"></path>
					<path d="M204.1,107.6H22.9c-3.8,0-6.8-3.1-6.8-6.8s3.1-6.8,6.8-6.8h181.1c3.8,0,6.8,3.1,6.8,6.8
						S207.8,107.6,204.1,107.6z M22.9,94.5c-3.5,0-6.3,2.8-6.3,6.3s2.8,6.3,6.3,6.3h181.1c3.5,0,6.3-2.8,6.3-6.3s-2.8-6.3-6.3-6.3
						H22.9z" class="st10"></path>
				</g>
				<g>
					<path d="M34.7,116.2h157.6c10.1,0,18.3,8.2,18.3,18.3l0,0c0,10.1-8.2,18.3-18.3,18.3H34.7
						c-10.1,0-18.3-8.2-18.3-18.3l0,0C16.4,124.4,24.6,116.2,34.7,116.2z" class="st9"></path>
					<path d="M192.3,153.2H34.7c-10.3,0-18.6-8.3-18.6-18.6S24.5,116,34.7,116h157.6c10.3,0,18.6,8.3,18.6,18.6
						S202.5,153.2,192.3,153.2z M34.7,116.5c-10,0-18.1,8.1-18.1,18.1s8.1,18.1,18.1,18.1h157.6c10,0,18.1-8.1,18.1-18.1
						s-8.1-18.1-18.1-18.1H34.7z" class="st10"></path>
				</g>
				<g>
					<path d="M86.2,72H136c3.6,0,6.6,2.9,6.6,6.6l0,0c0,3.6-2.9,6.6-6.6,6.6H86.2c-3.6,0-6.6-2.9-6.6-6.6l0,0
						C79.6,75,82.6,72,86.2,72z" class="st9"></path>
					<path d="M136,85.4H86.2c-3.8,0-6.8-3.1-6.8-6.8c0-3.8,3.1-6.8,6.8-6.8H136c3.8,0,6.8,3.1,6.8,6.8
						C142.8,82.3,139.7,85.4,136,85.4z M86.2,72.3c-3.5,0-6.3,2.8-6.3,6.3c0,3.5,2.8,6.3,6.3,6.3H136c3.5,0,6.3-2.8,6.3-6.3
						c0-3.5-2.8-6.3-6.3-6.3H86.2z" class="st10"></path>
				</g>
				<g>
					<path d="M154.1,72h49.8c3.6,0,6.6,2.9,6.6,6.6l0,0c0,3.6-2.9,6.6-6.6,6.6h-49.8c-3.6,0-6.6-2.9-6.6-6.6l0,0
						C147.5,75,150.5,72,154.1,72z" class="st9"></path>
					<path d="M203.9,85.4h-49.8c-3.8,0-6.8-3.1-6.8-6.8c0-3.8,3.1-6.8,6.8-6.8h49.8c3.8,0,6.8,3.1,6.8,6.8
						C210.7,82.3,207.7,85.4,203.9,85.4z M154.1,72.3c-3.5,0-6.3,2.8-6.3,6.3c0,3.5,2.8,6.3,6.3,6.3h49.8c3.5,0,6.3-2.8,6.3-6.3
						c0-3.5-2.8-6.3-6.3-6.3H154.1z" class="st10"></path>
				</g>
				<g>
					<path d="M136.1,163.9h25.7c3.5,0,6.4,2.9,6.4,6.4v0c0,3.5-2.9,6.4-6.4,6.4h-25.7c-3.5,0-6.4-2.9-6.4-6.4v0
						C129.7,166.7,132.5,163.9,136.1,163.9z" class="st9"></path>
					<path d="M161.8,177.1h-25.7c-3.8,0-6.8-3.1-6.8-6.8c0-3.8,3.1-6.8,6.8-6.8h25.7c3.8,0,6.8,3.1,6.8,6.8
						C168.6,174,165.5,177.1,161.8,177.1z M136.1,164.3c-3.3,0-6,2.7-6,6s2.7,6,6,6h25.7c3.3,0,6-2.7,6-6s-2.7-6-6-6H136.1z" class="st11"></path>
				</g>
				<path d="M178.9,163.5h25.7c3.8,0,6.8,3,6.8,6.8l0,0c0,3.8-3,6.8-6.8,6.8h-25.7c-3.8,0-6.8-3-6.8-6.8l0,0
					C172.1,166.5,175.1,163.5,178.9,163.5z" class="st12"></path>
				<path d="M31.7,28.7c0,3.8-3,6.8-6.8,6.8c-3.7,0-6.8-3-6.8-6.8c0-3.8,3-6.8,6.8-6.8
					C28.7,21.8,31.7,24.9,31.7,28.7" class="st12" id="Fill-80"></path>
				<path d="M25,31.8c-0.3,0-0.6-0.3-0.6-0.6V26c0-0.3,0.3-0.6,0.6-0.6c0.3,0,0.6,0.3,0.6,0.6v5.2
					C25.6,31.5,25.4,31.8,25,31.8" class="st13" id="Fill-81"></path>
				<path d="M21.8,28.6c0-0.3,0.3-0.6,0.6-0.6h5.2c0.3,0,0.6,0.3,0.6,0.6c0,0.3-0.3,0.6-0.6,0.6h-5.2
					C22.1,29.2,21.8,28.9,21.8,28.6" class="st13"></path>
				<path d="M107.1,123.9c0,0.1-19.1,0.1-42.7,0.1c-23.6,0-42.7-0.1-42.7-0.1c0-0.1,19.1-0.1,42.7-0.1
					C88,123.8,107.1,123.8,107.1,123.9" class="st12" id="Fill-121"></path>
				<path d="M201.4,130.6c0,0.1-40.2,0.1-89.8,0.1c-49.6,0-89.9-0.1-89.9-0.1c0-0.1,40.2-0.1,89.9-0.1
					C161.1,130.4,201.4,130.5,201.4,130.6" class="st12" id="Fill-122"></path>
				<path d="M201.4,136.8c0,0.1-40.2,0.1-89.8,0.1c-49.6,0-89.9-0.1-89.9-0.1s40.2-0.1,89.9-0.1
					C161.1,136.7,201.4,136.8,201.4,136.8" class="st12" id="Fill-123"></path>
				<path d="M141.7,170.2c0-0.9,0.7-1.5,1.6-1.5c0.5,0,0.9,0.2,1.2,0.5l-0.4,0.3
					c-0.2-0.2-0.5-0.3-0.8-0.3c-0.6,0-1.1,0.4-1.1,1c0,0.6,0.4,1,1.1,1c0.3,0,0.6-0.1,0.8-0.3l0.4,0.3c-0.3,0.3-0.7,0.5-1.2,0.5
					C142.4,171.7,141.7,171.1,141.7,170.2" class="st12" id="Fill-125"></path>
				<path d="M146.3,170.9v-0.3h-0.5c-0.3,0-0.4,0.1-0.4,0.3c0,0.2,0.1,0.3,0.4,0.3
					C146,171.3,146.2,171.2,146.3,170.9z M146.8,170.3v1.4h-0.5v-0.3c-0.1,0.2-0.3,0.3-0.7,0.3c-0.5,0-0.8-0.3-0.8-0.7
					c0-0.4,0.2-0.7,0.9-0.7h0.5v0c0-0.3-0.2-0.5-0.5-0.5c-0.2,0-0.5,0.1-0.6,0.2l-0.2-0.4c0.2-0.2,0.6-0.3,0.9-0.3
					C146.4,169.2,146.8,169.6,146.8,170.3L146.8,170.3z" class="st12" id="Fill-126"></path>
				<path d="M149.7,170.3v1.4h-0.5v-1.3c0-0.4-0.2-0.6-0.5-0.6c-0.4,0-0.6,0.2-0.6,0.7v1.2h-0.5v-2.4
					h0.5v0.3c0.2-0.2,0.5-0.3,0.8-0.3C149.3,169.2,149.7,169.6,149.7,170.3" class="st12" id="Fill-127"></path>
				<path d="M150.2,170.5c0-0.7,0.5-1.2,1.3-1.2c0.5,0,0.8,0.2,1,0.6l-0.4,0.3c-0.1-0.2-0.3-0.3-0.6-0.3
					c-0.4,0-0.7,0.3-0.7,0.7c0,0.5,0.3,0.7,0.7,0.7c0.2,0,0.4-0.1,0.6-0.3l0.4,0.3c-0.2,0.4-0.5,0.6-1,0.6
					C150.8,171.7,150.2,171.2,150.2,170.5" class="st12" id="Fill-128"></path>
				<path d="M153.2,170.3h1.3c0-0.3-0.3-0.6-0.7-0.6C153.5,169.7,153.3,169.9,153.2,170.3z M155.1,170.6
					h-1.9c0.1,0.3,0.4,0.6,0.8,0.6c0.3,0,0.5-0.1,0.6-0.3l0.3,0.3c-0.2,0.3-0.5,0.4-1,0.4c-0.8,0-1.3-0.5-1.3-1.2
					c0-0.7,0.5-1.2,1.2-1.2c0.7,0,1.2,0.5,1.2,1.2L155.1,170.6L155.1,170.6z" class="st12" id="Fill-129"></path>
				<polygon points="155.5,171.7 155.9,171.7 155.9,168.5 155.5,168.5" class="st12" id="Fill-130"></polygon>
				<path d="M186.8,171.3l0.2-0.4c0.2,0.2,0.6,0.3,1,0.3c0.5,0,0.7-0.2,0.7-0.4c0-0.6-1.8-0.2-1.8-1.3
					c0-0.5,0.4-0.9,1.2-0.9c0.4,0,0.7,0.1,1,0.3l-0.2,0.4c-0.3-0.2-0.6-0.2-0.8-0.2c-0.5,0-0.7,0.2-0.7,0.4c0,0.6,1.8,0.2,1.8,1.3
					c0,0.5-0.4,0.9-1.2,0.9C187.5,171.7,187.1,171.5,186.8,171.3" class="st13" id="Fill-132"></path>
				<path d="M191,170.9v-0.3h-0.5c-0.3,0-0.4,0.1-0.4,0.3c0,0.2,0.1,0.3,0.4,0.3
					C190.7,171.3,190.9,171.2,191,170.9z M191.5,170.3v1.4H191v-0.3c-0.1,0.2-0.3,0.3-0.7,0.3c-0.5,0-0.8-0.3-0.8-0.7
					c0-0.4,0.2-0.7,0.9-0.7h0.5v0c0-0.3-0.2-0.5-0.5-0.5c-0.2,0-0.5,0.1-0.6,0.2l-0.2-0.4c0.2-0.2,0.6-0.3,0.9-0.3
					C191.1,169.2,191.5,169.6,191.5,170.3L191.5,170.3z" class="st13" id="Fill-133"></path>
				<path d="M194.8,170.3h1.3c0-0.3-0.3-0.6-0.7-0.6C195.1,169.7,194.9,169.9,194.8,170.3z M196.7,170.6
					h-1.9c0.1,0.3,0.4,0.6,0.8,0.6c0.3,0,0.5-0.1,0.6-0.3l0.3,0.3c-0.2,0.3-0.5,0.4-1,0.4c-0.8,0-1.3-0.5-1.3-1.2
					c0-0.7,0.5-1.2,1.2-1.2c0.7,0,1.2,0.5,1.2,1.2L196.7,170.6L196.7,170.6z" class="st13" id="Fill-135"></path>
				<path d="M0,17.3h229.3v-7c0-4.4-3.6-8-8-8H0l0,0V17.3z" class="st14" id="Fill-136"></path>
				<path d="M12.1,9.5c0,1.5-1.2,2.7-2.7,2.7S6.8,11,6.8,9.5C6.8,8,8,6.8,9.4,6.8S12.1,8,12.1,9.5" class="st13" id="Fill-137"></path>
				<path d="M20.8,9.5c0,1.5-1.2,2.7-2.7,2.7s-2.7-1.2-2.7-2.7c0-1.5,1.2-2.7,2.7-2.7S20.8,8,20.8,9.5" class="st13" id="Fill-138"></path>
				<path d="M29.6,9.5c0,1.5-1.2,2.7-2.7,2.7c-1.5,0-2.7-1.2-2.7-2.7c0-1.5,1.2-2.7,2.7-2.7
					C28.4,6.8,29.6,8,29.6,9.5" class="st13" id="Fill-139"></path>
				<path d="M228.4,41c0,0.1-50.9,0.1-113.8,0.1C51.8,41.1,0.9,41,0.9,41c0-0.1,50.9-0.1,113.8-0.1
					C177.4,40.8,228.4,40.9,228.4,41" class="st3" id="Fill-140"></path>
				<path d="M25.1,100.8c0,0.7-0.5,1.2-1.2,1.2s-1.2-0.5-1.2-1.2c0-0.7,0.5-1.2,1.2-1.2S25.1,100.1,25.1,100.8" class="st12"></path>
				<path d="M29.3,100.8c0,0.7-0.5,1.2-1.2,1.2s-1.2-0.5-1.2-1.2c0-0.7,0.5-1.2,1.2-1.2S29.3,100.1,29.3,100.8" class="st12"></path>
				<path d="M33.3,100.8c0,0.7-0.5,1.2-1.2,1.2c-0.7,0-1.2-0.5-1.2-1.2c0-0.7,0.5-1.2,1.2-1.2
					C32.7,99.6,33.3,100.1,33.3,100.8" class="st12" id="Fill-143"></path>
				<polyline points="194.4,169.4 193.4,171.7 192.8,171.7 191.8,169.4 192.4,169.4 193.1,171.1 
					193.9,169.4 194.4,169.4" class="st13" id="Fill-134"></polyline>
				<g class="st15">
					<path d="M44.9,31.1c-0.1,0.6-0.3,1.1-0.4,1.6c-0.2,0.5-0.4,0.9-0.6,1.3l-0.9-0.6c0.2-0.3,0.4-0.7,0.5-1.1
						c0.1-0.4,0.2-0.8,0.4-1.4L44.9,31.1z M46.6,30.5v2.3c0,0.4-0.1,0.7-0.3,1c-0.2,0.3-0.5,0.5-0.7,0.7c-0.3,0.2-0.6,0.3-0.8,0.3
						l-0.2-1c0.3-0.1,0.5-0.2,0.7-0.3c0.2-0.2,0.3-0.4,0.3-0.6v-2.3h-2.2v-1.1h2.2v-0.9h-2.5v-1.1h1.1l-0.4-1.2l1-0.3l0.5,1.5h1.4
						l0.5-1.5l1,0.3l-0.4,1.2h1.1v1.1h-2.2v0.9h1.9v1.1H46.6z M48.6,25.7h-5.2v-1h1.9L45.2,24l1-0.2l0.2,0.9h2.2V25.7z M48.8,33
						l-0.9,0.4l-1-2.3l1-0.4L48.8,33z M53.9,28.5h-1.1v6h-1.1v-6h-1.5v3c0,1-0.3,2-0.8,3L48.6,34c0.4-0.9,0.7-1.7,0.7-2.5v-6.4
						c0-0.1,0.1-0.3,0.2-0.4c0.1-0.1,0.2-0.2,0.4-0.2h2.4c0.4,0,0.8-0.1,1.2-0.4l0.6,0.9c-0.6,0.4-1.2,0.5-1.7,0.5h-1.8v1.8h3.6
						V28.5z" class="st11"></path>
					<path d="M59.4,33.3h6.4v1h-6.4c-0.9,0-1.7-0.3-2.3-0.8c-0.4,0.5-0.9,0.9-1.5,1.2l-0.5-0.9c0.5-0.2,0.9-0.6,1.2-1
						c-0.3-0.4-0.5-0.7-0.7-1.2c-0.2-0.4-0.3-0.8-0.4-1.1l1-0.2c0.1,0.5,0.3,1,0.6,1.5c0.2-0.5,0.3-0.9,0.4-1.4
						c0.1-0.5,0.1-0.9,0.1-1.3h-1.6c-0.1,0-0.3-0.1-0.4-0.2c-0.1-0.1-0.1-0.2-0.1-0.4v-0.1c0-0.1,0-0.2,0.1-0.3l1.6-2.6h-1.8v-1.1
						h2.7c0.1,0,0.2,0,0.3,0.1s0.1,0.1,0.2,0.2c0,0.1,0.1,0.2,0.1,0.3c0,0.1,0,0.2-0.1,0.3l-1.7,2.7h1.2c0.1,0,0.3,0,0.4,0.1
						c0.1,0.1,0.2,0.2,0.2,0.3c0,0.3,0,0.5,0,0.6c0,0.6-0.1,1.3-0.2,1.9c-0.1,0.6-0.3,1.2-0.6,1.7C58.2,33.1,58.8,33.3,59.4,33.3z
						 M65.8,26.1v1.1H65v1.1c0,0.2-0.1,0.3-0.1,0.4c-0.1,0.1-0.2,0.2-0.4,0.2h-2.2v0.7h2.9v1.1h-2.9v0.7h3.2v1.1h-3.2v0.7h-1v-0.7
						h-2.7v-1.1h2.7v-0.7h-2.4v-1.1h2.4v-0.7H59v-1.1h2.2v-0.5h-2.7v-1.1h2.7v-0.5H59v-1.1h2.2V24h1v0.6h2.2c0.1,0,0.3,0,0.4,0.1
						C65,24.8,65,24.9,65,25v1.1H65.8z M62.3,26.1h1.7v-0.5h-1.7V26.1z M63.9,27.2h-1.7v0.5h1.7V27.2z" class="st11"></path>
					<path d="M71.1,32.1c-0.4,0.3-0.9,0.6-1.5,0.8c-0.5,0.2-1.1,0.3-1.7,0.3h-0.8V32H68c0.1,0,0.3,0,0.5,0v-6.1h-1.3
						v-1.1h3.6v1.1h-1.3v5.8c0.3-0.1,0.7-0.3,1-0.5L71.1,32.1z M77.6,34.7l-3.2-2.2c-0.4,0.6-0.9,1-1.6,1.4
						c-0.6,0.4-1.2,0.7-1.7,0.9l-0.4-1c0.4-0.2,0.8-0.4,1.3-0.7s0.9-0.6,1.3-1c0.4-0.4,0.6-0.8,0.6-1.2V28H75v2.9
						c0,0.2,0,0.4-0.1,0.6l3.3,2.3L77.6,34.7z M73.5,25.5h-2.3v-1h6.7v1h-3.2l-0.4,1.1h2.7c0.1,0,0.3,0.1,0.4,0.2
						c0.1,0.1,0.1,0.2,0.1,0.4v5.2h-1v-4.7h-3.9v4.7h-1.1v-5.2c0-0.1,0.1-0.3,0.2-0.4c0.1-0.1,0.2-0.2,0.4-0.2h1.1L73.5,25.5z" class="st11"></path>
					<path d="M88.3,24.3c0.1,0.1,0.2,0.2,0.2,0.4v9.5h-1.1v-0.4h-6.1v0.3h-1.1v-9.5c0-0.1,0.1-0.3,0.2-0.4
						c0.1-0.1,0.2-0.2,0.4-0.2h7.2C88.1,24.2,88.2,24.2,88.3,24.3z M81.3,25.2v1.9h6.1v-1.9H81.3z M81.3,28.2V30h6.1v-1.8H81.3z
						 M87.4,32.8V31h-6.1v1.8H87.4z" class="st11"></path>
				</g>
			</g>
			<g transform="translate(119.000000, 26.095238)" id="编组-4">
				<g>
					<ellipse ry="16.1" rx="16" cy="17.1" cx="17" class="st16" id="椭圆形_1_"></ellipse>
					<path d="M17,34.1c-9.4,0-17-7.7-17-17.1S7.6,0,17,0s17,7.7,17,17.1S26.4,34.1,17,34.1z M17,2C8.7,2,2,8.8,2,17.1
						c0,8.3,6.7,15.1,15,15.1s15-6.8,15-15.1C32,8.8,25.3,2,17,2z" class="st11"></path>
				</g>
				<polygon points="16.3,26.1 26,8.2 14.7,18.4 8.2,14.9" class="st4"></polygon>
			</g>
			<g transform="translate(343.000000, 184.673993)" id="编组-3">
				<g>
					<path d="M23.4,58.6c-8.8-3.6-13.1-8.5-13.1-14.5C10.2,35,0,39.2,0,42.3c0,2.1,0.9,4.1,2.7,6.3
						c1.8,3.7,1.8,7.1,0,10c-1.8,3,0.7,5.6,7.6,8.1c4.3,2.3,6.5,6.1,6.5,11.4s4.7,7.2,14,5.6L23.4,58.6z" class="st16" id="路径-6_1_"></path>
					<path d="M25,84.5c-3,0-5.3-0.6-6.7-1.8c-1.3-1.1-1.9-2.6-1.9-4.6c0-5.2-2.1-9-6.3-11.2c-4.7-1.7-7.3-3.4-8.1-5.4
						c-0.3-1-0.2-2,0.4-3c1.7-2.9,1.7-6.1,0-9.8c-1.8-2.1-2.7-4.3-2.7-6.4c0-1.9,3.3-4,6.1-4c1.3,0,2.4,0.4,3.2,1.3
						c0.9,1,1.4,2.5,1.4,4.5c0,5.9,4.4,10.8,13,14.3l0.1,0l0,0.1L31,84l-0.3,0C28.6,84.4,26.7,84.5,25,84.5z M5.9,38.8
						c-2.8,0-5.6,2-5.6,3.5c0,2,0.9,4,2.6,6.1l0,0.1c1.8,3.8,1.8,7.2,0,10.3c-0.5,0.9-0.7,1.7-0.4,2.6c0.6,1.8,3.3,3.5,7.8,5.1
						c4.4,2.3,6.6,6.3,6.6,11.7c0,1.8,0.6,3.3,1.7,4.2c2,1.7,6,2.1,11.7,1.2l-7.2-24.8C14.4,55.2,10,50.2,10,44.1
						c0-1.8-0.4-3.2-1.3-4.1C8,39.2,7,38.8,5.9,38.8z" class="st17"></path>
				</g>
				<path d="M29.1,68.4C13.4,63.9,6,57.4,7.3,49l0.5,0.1c-1.2,8.1,6,14.4,21.4,18.9L29.1,68.4z" class="st17"></path>
				<g>
					<path d="M33,60.2c7.5-1.3,13.4-4,17.5-8.1c6.3-6.2,4.5-11.7,10.9-9c4.3,1.8,4.3,4.8,0,9
						c-1.3,1.5-2,4.9-2,10.2c0.2,3.1-2.1,5.1-6.9,6.1c-4.1,0.9-7.2,3.4-9.3,7.7c-3.1,6.4-6,7.7-13.9,7.7
						C24.1,83.8,25.3,75.9,33,60.2z" class="st16" id="路径-4_1_"></path>
					<path d="M29.4,84c-1.3,0-2.3-0.5-2.8-1.4c-1.8-2.9,0.2-10.3,6.2-22.6l0.1-0.1l0.1,0c7.4-1.3,13.3-4,17.4-8.1
						c2.3-2.3,3.5-4.5,4.5-6.3c1.6-2.9,2.5-4.6,6.7-2.8c2,0.8,3.1,1.9,3.3,3.3c0.3,1.7-0.8,3.7-3.3,6.1c-1.2,1.4-1.9,4.8-1.9,10.1
						c0.2,3.2-2.2,5.4-7.1,6.3c-4,0.8-7.1,3.4-9.1,7.6C40.2,82.9,37.1,84,29.4,84z M33.2,60.4c-5.8,11.9-7.9,19.3-6.2,22
						c0.5,0.8,1.3,1.1,2.4,1.1c8.1,0,10.7-1.5,13.7-7.6c2.1-4.3,5.3-7,9.5-7.8c4.7-0.9,6.9-2.8,6.7-5.8c0-5.5,0.7-8.9,2-10.4
						c2.4-2.3,3.4-4.2,3.1-5.7c-0.2-1.2-1.2-2.1-3-2.9c-3.8-1.6-4.5-0.3-6.1,2.6c-1,1.8-2.2,4-4.6,6.4
						C46.5,56.4,40.6,59.1,33.2,60.4z" class="st17"></path>
				</g>
				<path d="M29.5,82.1c-1-4.1-0.8-7.4,0.7-10c1.5-2.4,4.1-4.1,7.9-5c7.6-1.8,13.2-6.1,16.9-12.8l0.4,0.2
					c-3.7,6.8-9.5,11.2-17.2,13.1c-3.7,0.9-6.2,2.5-7.6,4.8C29.2,74.8,29,78,30,82L29.5,82.1z" class="st17"></path>
				<g>
					<path d="M29.8,0.3c3-0.2,5.8,0.1,7.5,1.9c1.8,1.9,2.7,4,2.7,6.5c0,2.5-0.9,5.2-2.7,8.3
						c-0.9,3.8-1.1,7.1-0.4,10c0.7,2.9,2.1,5.5,4.3,7.6c3.8,3.6,5.9,16.2,3.6,27.9c-1.7,8.6-5.6,16.7-13,20.7
						c-1.4,0.7-3,0.5-4.5-0.2c-1.6-0.8-3.2-2.3-4.4-4.2c-2.2-3.5-3.3-8.3-1.9-13c3-10.2,1.5-16.8,0-19.3c-0.2-0.3-0.4-0.6-0.7-1
						c-0.1-0.2-0.2-0.3-0.4-0.5c-1.8-2.2-4.5-5.6-5.6-9.5c-0.7-2.5-0.7-5.3,0.8-8.1c2.2-4.4,3.8-5.7,5.2-6.9
						c1.3-1.1,2.5-2.1,3.7-5.4c0.9-2.4,0.9-5,1-7.3c0.1-2.4,0.1-4.5,1-5.8C26.6,0.9,27.7,0.3,29.8,0.3z" class="st16" id="路径-2_1_"></path>
					<path d="M29.8,83.9c-0.9,0-1.8-0.2-2.6-0.7c-1.7-0.8-3.3-2.3-4.5-4.3c-2.5-3.9-3.2-8.9-1.9-13.2
						c3-10.3,1.4-16.8,0-19.1c-0.1-0.2-0.4-0.5-0.7-1l-0.4-0.5c-1.8-2.3-4.5-5.6-5.6-9.6c-0.8-2.9-0.5-5.7,0.8-8.3
						c2.3-4.4,3.9-5.8,5.2-7c1.3-1.1,2.4-2,3.6-5.3c0.9-2.4,0.9-4.9,1-7.2l0-0.1c0.1-2.4,0.1-4.4,1.1-5.8c0.8-1.2,2.1-1.7,4.1-1.7
						c3.7-0.3,6.2,0.4,7.7,2c1.8,1.9,2.8,4.2,2.8,6.7c0,2.5-0.9,5.3-2.8,8.4c-0.9,3.7-1,6.9-0.4,9.8c0.6,2.9,2.1,5.4,4.3,7.5
						c4.5,4.4,5.6,18.3,3.7,28.1c-2.5,12.7-8.5,18.4-13.2,20.9C31.2,83.7,30.5,83.9,29.8,83.9z M29.8,0.6c-1.8,0-3,0.5-3.7,1.5
						c-0.9,1.3-0.9,3.3-1,5.6l0,0.1c-0.1,2.3-0.1,5-1,7.4c-1.2,3.4-2.4,4.4-3.8,5.5c-1.4,1.2-2.9,2.5-5.1,6.8
						c-1.2,2.5-1.5,5.1-0.7,7.9c1,3.8,3.7,7.1,5.5,9.3l0.4,0.5c0.4,0.5,0.6,0.8,0.7,1c1.8,2.9,2.9,9.7,0.1,19.5
						c-1.2,4.2-0.5,9,1.9,12.8c1.2,1.9,2.7,3.4,4.3,4.1c1.5,0.7,3,0.8,4.3,0.2c4.5-2.4,10.5-8,12.9-20.5c2.3-12.1,0-24.3-3.5-27.7
						c-2.3-2.2-3.7-4.8-4.4-7.7c-0.7-3-0.5-6.3,0.4-10.1l0-0.1c1.8-3,2.7-5.7,2.7-8.1c0-2.4-0.9-4.5-2.6-6.3
						C35.7,0.9,33.4,0.3,29.8,0.6L29.8,0.6z" class="st17"></path>
				</g>
				<path d="M31,12.2l0.5,0.7c-3.7,7.7-3.3,19.5,1.4,35.4l0.2,0.5l0,0c1.6,9.1,0.9,19.7-1.9,31.8L31,81
					l-0.6-0.4c2.9-11.9,3.6-22.3,2.1-31.2l0-0.2l-0.1-0.4c-4.7-16.1-5.2-28.2-1.4-36.3L31,12.2z" class="st17" id="路径-3"></path>
			</g>
			
				<g transform="translate(60.500000, 226.827839) scale(-1, 1) translate(-60.500000, -226.827839) translate(28.000000, 184.673993)">
				<g>
					<path d="M23.4,58.6c-8.8-3.6-13.1-8.5-13.1-14.5C10.2,35,0,39.2,0,42.3c0,2.1,0.9,4.1,2.7,6.3
						c1.8,3.7,1.8,7.1,0,10c-1.8,3,0.7,5.6,7.6,8.1c4.3,2.3,6.5,6.1,6.5,11.4s4.7,7.2,14,5.6L23.4,58.6z" class="st16"></path>
					<path d="M25.1,84.5c1.7,0,3.5-0.2,5.7-0.5l0.3,0l-7.4-25.5l-0.1,0c-8.6-3.6-13-8.4-13-14.3c0-2-0.5-3.5-1.4-4.5
						c-0.8-0.8-1.9-1.3-3.2-1.3c-2.9,0-6.1,2.1-6.1,4c0,2.1,0.9,4.3,2.7,6.4c1.7,3.6,1.7,6.9,0,9.8c-0.6,1-0.7,2-0.4,3
						c0.7,2,3.4,3.8,8.1,5.4c4.2,2.2,6.3,6,6.3,11.2c0,2,0.6,3.5,1.9,4.6C19.8,83.9,22,84.5,25.1,84.5z M30.3,83.6
						c-5.7,0.9-9.6,0.5-11.7-1.2c-1.1-1-1.7-2.4-1.7-4.2c0-5.4-2.2-9.3-6.6-11.7c-4.6-1.6-7.2-3.3-7.8-5.2c-0.3-0.8-0.2-1.7,0.4-2.6
						c1.8-3,1.8-6.5,0-10.3l0-0.1c-1.7-2.1-2.6-4.1-2.6-6.1c0-1.5,2.8-3.5,5.6-3.5C7,38.8,8,39.2,8.7,40c0.8,0.9,1.3,2.3,1.3,4.1
						c0,6.1,4.4,11.1,13.2,14.7L30.3,83.6z" class="st17"></path>
				</g>
				<path d="M29.1,68.4l0.1-0.5C13.8,63.5,6.6,57.1,7.8,49.1L7.3,49C6,57.4,13.4,63.9,29.1,68.4z" class="st17"></path>
				<g>
					<path d="M33,60.2c7.5-1.3,13.4-4,17.5-8.1c6.3-6.2,4.5-11.7,10.9-9c4.3,1.8,4.3,4.8,0,9c-1.3,1.5-2,4.9-2,10.2
						c0.2,3.1-2.1,5.1-6.9,6.1c-4.1,0.9-7.2,3.4-9.3,7.7c-3.1,6.4-6,7.7-13.9,7.7C24.1,83.8,25.3,75.9,33,60.2z" class="st16"></path>
					<path d="M29.4,84c7.8,0,10.9-1.1,14.2-7.9c2-4.2,5.1-6.7,9.1-7.6c4.9-0.9,7.3-3.1,7.1-6.3c0-5.2,0.6-8.6,1.9-10.1
						c2.5-2.4,3.6-4.4,3.2-6.1c-0.2-1.3-1.4-2.4-3.3-3.3c-4.2-1.8-5.2-0.1-6.7,2.8c-1,1.8-2.1,3.9-4.5,6.3c-4.1,4.1-10,6.8-17.4,8.1
						l-0.1,0l-0.1,0.1c-6,12.3-8.1,19.7-6.2,22.6C27.1,83.5,28.1,84,29.4,84z M58.7,42.6c0.7,0,1.6,0.2,2.7,0.7
						c1.8,0.8,2.8,1.7,3,2.9c0.3,1.5-0.8,3.4-3.1,5.7c-1.4,1.6-2,5-2,10.4c0.2,3-2,4.9-6.7,5.8c-4.2,0.9-7.4,3.5-9.5,7.8
						c-3,6.1-5.7,7.6-13.7,7.6c-1.1,0-1.9-0.4-2.4-1.1c-1.7-2.7,0.4-10.1,6.2-22c7.5-1.3,13.4-4,17.5-8.2c2.4-2.4,3.6-4.6,4.6-6.4
						C56.4,43.8,57,42.6,58.7,42.6z" class="st17"></path>
				</g>
				<path d="M29.5,82.1L30,82c-1-4-0.8-7.2,0.7-9.6c1.4-2.3,4-3.9,7.6-4.8c7.7-1.8,13.5-6.2,17.2-13.1l-0.4-0.2
					c-3.6,6.7-9.3,11-16.9,12.8c-3.8,0.9-6.5,2.6-7.9,5C28.7,74.6,28.5,78,29.5,82.1z" class="st17"></path>
				<g>
					<path d="M37.5,2.1c3.7,3.9,3.7,8.9,0,15.1c-1.8,7.3-0.5,13.1,3.9,17.3c6.6,6.3,8.2,39.5-9.5,49
						c-5.9,2.8-14.1-7.7-11.2-17.8s1.5-16.7,0-19.1c-1.5-2.4-10.4-10.5-5.9-19.2s6.4-5.6,8.9-12.3S22.1,0.1,29.8,0.1
						C32.9-0.2,35.7,0.2,37.5,2.1z" class="st16"></path>
					<path d="M29.8,84.1c0.8,0,1.5-0.2,2.2-0.5c9.9-5.3,12.8-17.2,13.7-23.8c1.4-10.5-0.5-22-4.2-25.6
						c-4.3-4.1-5.6-9.8-3.8-17c3.7-6.2,3.7-11.4-0.1-15.3c-1.6-1.7-4.1-2.4-7.9-2.1c0,0,0,0,0,0c-5.2,0-5.3,3.7-5.4,7.9
						c-0.1,2.3-0.1,4.8-1,7.1c-1.2,3.2-2.2,4.1-3.5,5.2c-1.3,1.1-3,2.6-5.3,7c-3.8,7.4,1.9,14.5,4.7,17.8c0.6,0.7,1,1.3,1.3,1.6
						c1.4,2.2,2.9,8.7,0,18.9c-1.9,6.7,0.9,13.4,4.6,16.6C26.6,83.5,28.3,84.1,29.8,84.1z M31.3,0.2c2.8,0,4.7,0.6,5.9,2l0,0
						c3.6,3.8,3.6,8.7,0,14.8l0,0.1c-1.8,7.4-0.5,13.2,4,17.5c3.7,3.5,5.5,14.8,4.1,25.2c-0.9,6.5-3.8,18.2-13.5,23.4
						c-1.9,0.9-4.2,0.4-6.3-1.4c-3.6-3.1-6.4-9.6-4.5-16.1c3.7-12.8,0.4-18.7,0-19.3c-0.3-0.4-0.7-1-1.3-1.7
						c-2.9-3.6-8.2-10.2-4.6-17.3c2.2-4.4,3.8-5.7,5.2-6.9c1.3-1.1,2.5-2.1,3.7-5.4c0.9-2.4,0.9-5,1-7.3C25,3.4,25,0.3,29.8,0.3
						C30.3,0.3,30.8,0.2,31.3,0.2z" class="st17"></path>
				</g>
				<path d="M30.2,80.8C35,68.7,36.1,58,33.5,49c-7.8-16.1-8.6-28.2-2.4-36l-0.4-0.3c-6.3,8-5.5,20.3,2.3,36.5
					c2.5,8.9,1.4,19.4-3.3,31.4L30.2,80.8z" class="st17"></path>
			</g>
			<g transform="translate(58.000000, 55.201465)" id="编组">
				<g transform="translate(0.083901, 12.519944)" id="编组-8">
					<polyline points="60.9,172.2 64.2,200.9 90.3,200.8 78.2,189 76.1,173.7 60.9,172.2" class="st18" id="Fill-158"></polyline>
					<polyline points="72.2,192.5 71.8,191.6 77.8,188.7 78.2,189.6 72.2,192.5" class="st16" id="Fill-159"></polyline>
					<polyline points="35.7,172.2 34.6,200.7 5.9,200.7 18.6,189 19.8,173.1 35.7,172.2" class="st18" id="Fill-160"></polyline>
					<polyline points="24.3,192.5 18.3,189.6 18.7,188.7 24.7,191.6 24.3,192.5" class="st16" id="Fill-161"></polyline>
					<path d="M49.4,59.8l-0.5,5.7l-0.1,0.9l-0.6,6.2l-9.3,101.2c-0.3,3-2.7,5.3-5.7,5.3H20.8
						c-3.3,0-5.9-2.7-5.8-6c1-34.9,1.3-67.5,4.2-95.2c0.3-3.1,0.7-6.1,1.1-9.1l15.1-4.7L49.4,59.8" class="st19" id="Fill-162"></path>
					<path d="M66.1,69.1c3.4,32.5,8.5,67,14.8,103c0.5,3.1-1.8,6-4.9,6H60.7c-2.5,0-4.6-1.8-4.9-4.3
						L39.2,63.3L66.1,69.1" class="st19" id="Fill-163"></path>
					<path d="M19.3,78.1c0.3-3.1,0.7-6.1,1.1-9l15.1-4.7l4,0.7l0,0l1.4,9.1L19.3,78.1" class="st20" id="Fill-164"></path>
					<polyline points="40.9,73.9 39.5,64.9 48.9,66.4 66.3,69.2 48.3,72.6 40.9,73.9 40.9,73.9" class="st20" id="Fill-165"></polyline>
					<polyline points="48.4,126.1 43.6,90.8 36.9,89.3 37.2,88.3 44.4,90 49.4,126 48.4,126.1" class="st21" id="Fill-166"></polyline>
					<path d="M79.6,38.4c0,0,7-10.5,8.4-10.1c1.9,0.5-1.1,4.4-1.1,4.4s5.8-6.4,6.8-5.6
						c1,0.8-1.7,4.4-1.7,4.4s3.4-3.9,4.4-2.9c1,1-2.9,5.7-2.9,5.7s3-4.1,3.9-3.4c0.9,0.7-2.5,5.2-2.5,5.2s2.4-2.1,2.9-1.1
						c0.5,1-7.4,11.7-7.4,11.7L81,47.3L79.6,38.4" class="st22" id="Fill-167"></path>
					<path d="M81.5,35.3l-9.7,11.6c-0.8-1.9-1.7-3.6-2.6-5.2c-4,1.6-10.4,4.7-15,9.1
						c3.5,7.9,7.5,15,11.5,17.3c10.1,5.7,24.6-21.4,24.6-21.4L81.5,35.3" class="st22" id="Fill-168"></path>
					<path d="M44.9,24.3c0,0,4.1,14.1,9.6,26.4c4.6-4.4,11.1-7.5,15.1-9.1
						C59.4,24.3,44.9,24.3,44.9,24.3" class="st18" id="Fill-169"></path>
					<path d="M44.5,23.8C25.1,27.3,19.3,52.1,20.3,69c16.1-1.4,46,0.4,46,0.4S60.2,27.5,44.5,23.8z" class="st23" id="Fill-170"></path>
					<path d="M16.7,56c0,0,12.3-6.8,14-5.3c1.6,1.4-3.8,4.4-3.8,4.4s9.1-2.4,9.6-1.1
						c0.5,1.3-3.9,3.5-3.9,3.5s5.2-2,5.6-0.5c0.4,1.5-6,3.4-6,3.4s5.1-2,5.6-0.8c0.5,1.2-5.3,3.3-5.3,3.3s3.5-0.5,3.4,0.7
						s-14.5,4.4-14.5,4.4l-8.4-3.1L16.7,56" class="st22" id="Fill-171"></path>
					<path d="M2,56c0,0-5,11.6,0.8,16.5c6.6,5.5,28.2-7.3,28.2-7.3l-10.5-7.1c0.3-4.1,1.1-7.9,2.5-11.6
						c-5.7-2-10.3-2.6-13.4-2.7C6.9,47.3,4.4,51.3,2,56" class="st22" id="Fill-172"></path>
					<path d="M44.4,23.8c0,0-19.3-0.1-34.9,20c3.2,0.1,7.7,0.8,13.4,2.7C26.3,37.5,33.1,29.8,44.4,23.8" class="st23" id="Fill-173"></path>
					<path d="M23.5,46.4l-0.9-0.3c1.6-5,4.1-9.5,7.5-13.8l0.8,0.6C27.5,37.2,25.1,41.6,23.5,46.4" class="st24" id="Fill-174"></path>
					<polyline points="48.1,40.7 48,39.8 56.2,39 56.3,39.9 48.1,40.7" class="st25" id="Fill-175"></polyline>
					<polyline points="7.9,58.8 7.6,57.9 22.3,52.7 22.6,53.6 7.9,58.8" class="st26" id="Fill-176"></polyline>
					<polyline points="68.2,51.7 67.5,51 74.1,44 74.8,44.6 68.2,51.7" class="st26" id="Fill-177"></polyline>
					<path d="M47.5,14.3v11.2c0,2.5-1.9,4.5-4.3,4.5c-2.4,0-4.3-2-4.3-4.5V14.3H47.5" class="st22" id="Fill-178"></path>
					<path d="M47.5,16.3v6.3c-4.8-1.2-6.9-5.8-6.9-5.8L47.5,16.3" class="st21" id="Fill-179"></path>
					<path d="M50.6,6.8c0,0,2,12.4-3.4,12.7c-5.5,0.2-9.8-4.9-9.8-4.9l-0.2-8.5l5.8-4L50.6,6.8" class="st22" id="Fill-180"></path>
					<path d="M50.6,6.7c0,0-4.5-3.3-7.5-2.1c-3,1.2-4.8,2.9-4.8,8.9L34.9,13c0,0-2.6-11,6.2-12.7
						C47.8-1.1,49.7,3.6,50.6,6.7" class="st27" id="Fill-181"></path>
					<path d="M38.9,11.5c1.1,1.5,1.1,3.4,0,4.3c-1.1,0.9-3,0.5-4.2-1c-1.1-1.5-1.1-3.4,0-4.3
						C35.9,9.6,37.7,10.1,38.9,11.5" class="st22" id="Fill-182"></path>
				</g>
				
					<g transform="translate(319.045929, 22.252588) scale(-1, 1) translate(-319.045929, -22.252588) translate(292.045929, 0.172002)">
					<path d="M5.2,0C2.3,0,0,2.4,0,5.3v22.2c0,2.9,2.3,5.3,5.2,5.3h24l14.2,11.1V32.8h4.8
						c2.9,0,5.2-2.4,5.2-5.3V5.3c0-2.9-2.3-5.3-5.2-5.3H5.2z" class="st27" id="Fill-183"></path>
					<path d="M14.2,19.5c-2,0-3.5-1.6-3.5-3.6s1.6-3.6,3.5-3.6c2,0,3.5,1.6,3.5,3.6S16.2,19.5,14.2,19.5
						z" class="st16" id="Fill-184"></path>
					<path d="M26.7,19.5c-2,0-3.5-1.6-3.5-3.6s1.6-3.6,3.5-3.6c2,0,3.5,1.6,3.5,3.6S28.6,19.5,26.7,19.5
						z" class="st16" id="Fill-185"></path>
					<path d="M39.3,19.5c-2,0-3.5-1.6-3.5-3.6s1.6-3.6,3.5-3.6c2,0,3.5,1.6,3.5,3.6S41.2,19.5,39.3,19.5
						z" class="st16" id="Fill-186"></path>
				</g>
			</g>
		</g>
	</g>
</g>
</svg>
