<svg t="1669360527387" class="icon" viewBox="0 0 1024 1024" version="1.1" xmlns="http://www.w3.org/2000/svg" p-id="31246" width="200" height="200"><path d="M849.408 251.050667a41.301333 41.301333 0 0 0-58.026667 0l-86.869333 86.869333 58.026667 58.026667 86.869333-86.869334a41.301333 41.301333 0 0 0 0-58.026666z" fill="#D8E3F0" p-id="31247"></path><path d="M860.842667 238.933333a51.2 51.2 0 0 0-72.362667 0l-5.290667 5.290667 72.362667 72.362667 5.290667-5.290667a51.2 51.2 0 0 0 0-72.362667z" fill="#FCFEFF" p-id="31248"></path><path d="M470.869333 159.061333h81.92v65.536h-81.92z" fill="#D8E3F0" p-id="31249"></path><path d="M421.717333 85.333333l180.224 0 0 73.728-180.224 0 0-73.728Z" fill="#FCFEFF" p-id="31250"></path><path d="M585.557333 85.333333H529.066667a17.066667 17.066667 0 0 1 17.066666 17.066667v40.96a17.066667 17.066667 0 0 1-17.066666 17.066667h56.32a17.066667 17.066667 0 0 0 17.066666-17.066667V102.4a17.066667 17.066667 0 0 0-16.896-17.066667z" fill="#D8E3F0" p-id="31251"></path><path d="M511.829333 580.437333m-358.229333 0a358.229333 358.229333 0 1 0 716.458667 0 358.229333 358.229333 0 1 0-716.458667 0Z" fill="#FFC670" p-id="31252"></path><path d="M512 704.853333a902.144 902.144 0 0 1-354.133333-72.021333 358.4 358.4 0 0 0 708.096 0A904.533333 904.533333 0 0 1 512 704.853333z" fill="#FFA742" p-id="31253"></path><path d="M511.829333 580.437333m-286.549333 0a286.549333 286.549333 0 1 0 573.098667 0 286.549333 286.549333 0 1 0-573.098667 0Z" fill="#FCFEFF" p-id="31254"></path><path d="M511.829333 580.437333m-153.6 0a153.6 153.6 0 1 0 307.2 0 153.6 153.6 0 1 0-307.2 0Z" fill="#D8E3F0" p-id="31255"></path><path d="M552.448 539.818667l-81.066667 81.066666L341.333333 450.56a28.501333 28.501333 0 0 1 2.901334-37.034667 28.501333 28.501333 0 0 1 37.205333-2.901333z" fill="#F6716F" p-id="31256"></path><path d="M511.829333 580.437333m-73.728 0a73.728 73.728 0 1 0 147.456 0 73.728 73.728 0 1 0-147.456 0Z" fill="#D8E3F0" p-id="31257"></path><path d="M511.829333 580.437333m-36.352 0a36.352 36.352 0 1 0 72.704 0 36.352 36.352 0 1 0-72.704 0Z" fill="#FCFEFF" p-id="31258"></path><path d="M512 403.456a17.066667 17.066667 0 0 0 17.066667-17.066667v-29.866666a17.066667 17.066667 0 0 0-34.133334 0v29.866666a17.066667 17.066667 0 0 0 17.066667 17.066667zM386.730667 729.6a17.066667 17.066667 0 0 0 0-24.064 17.066667 17.066667 0 0 0-24.234667 0L341.333333 726.698667A17.066667 17.066667 0 0 0 365.568 750.933333zM334.848 580.266667a17.066667 17.066667 0 0 0-17.066667-17.066667h-29.866666a17.066667 17.066667 0 1 0 0 34.133333h29.866666a17.066667 17.066667 0 0 0 17.066667-17.066666zM512 757.418667a17.066667 17.066667 0 0 0-17.066667 17.066666v29.866667a17.066667 17.066667 0 0 0 34.133334 0v-29.866667a17.066667 17.066667 0 0 0-17.066667-17.066666zM661.162667 705.536a17.066667 17.066667 0 0 0-24.064 0 17.066667 17.066667 0 0 0 0 24.064L658.090667 750.933333A17.066667 17.066667 0 0 0 682.666667 750.933333a17.066667 17.066667 0 0 0 0-24.064zM658.090667 409.6l-20.992 21.162667a17.066667 17.066667 0 0 0 0 24.064 17.066667 17.066667 0 0 0 24.064 0L682.666667 434.176A17.066667 17.066667 0 0 0 658.090667 409.6z" fill="#3D3D63" p-id="31259"></path><path d="M849.408 333.141333a17.066667 17.066667 0 0 0 18.261333-3.754666l5.290667-5.461334a68.266667 68.266667 0 1 0-96.426667-96.426666l-5.461333 5.290666a17.066667 17.066667 0 0 0-3.072 18.261334l-29.866667 29.866666a374.442667 374.442667 0 0 0-167.594666-71.338666v-34.133334h15.701333a34.133333 34.133333 0 0 0 34.133333-34.133333V102.4a34.133333 34.133333 0 0 0-34.133333-34.133333h-148.138667a34.133333 34.133333 0 0 0-34.133333 34.133333v40.96a34.133333 34.133333 0 0 0 34.133333 34.133333h15.701334v34.133334A375.466667 375.466667 0 1 0 819.2 364.202667z m0-81.578666a34.133333 34.133333 0 0 1 5.802667 40.618666l-46.933334-46.421333a34.133333 34.133333 0 0 1 40.618667 5.802667z m-58.538667 24.746666l34.133334 34.133334-26.965334 26.965333a330.581333 330.581333 0 0 0-34.133333-34.133333zM438.784 142.677333V102.4h146.773333v39.594667z m96.938667 34.133334v29.696c-7.850667 0-15.872-0.853333-23.893334-0.853334s-15.872 0-23.893333 0.853334v-30.378667zM512 921.6a341.333333 341.333333 0 1 1 341.333333-341.333333 341.333333 341.333333 0 0 1-341.333333 341.333333z" fill="#3D3D63" p-id="31260"></path><path d="M512 276.650667A303.786667 303.786667 0 1 0 815.616 580.266667 304.128 304.128 0 0 0 512 276.650667z m0 573.269333A269.653333 269.653333 0 1 1 781.482667 580.266667 269.653333 269.653333 0 0 1 512 849.92z" fill="#3D3D63" p-id="31261"></path><path d="M602.624 580.266667a90.453333 90.453333 0 0 0-87.722667-90.453334L392.533333 396.8A45.738667 45.738667 0 0 0 328.533333 460.8l92.842667 122.368A90.624 90.624 0 0 0 602.624 580.266667z m-246.784-139.946667a11.434667 11.434667 0 0 1 1.194667-15.018667 11.264 11.264 0 0 1 14.677333-1.194666l99.498667 75.434666a91.136 91.136 0 0 0-40.106667 40.106667z m99.328 139.946667A56.661333 56.661333 0 1 1 512 637.098667 56.661333 56.661333 0 0 1 455.168 580.266667zM688.810667 580.266667a17.066667 17.066667 0 0 0 17.066666 17.066666h29.866667a17.066667 17.066667 0 0 0 0-34.133333h-29.866667a17.066667 17.066667 0 0 0-17.066666 17.066667z" fill="#3D3D63" p-id="31262"></path></svg>