<svg t="1669360492513" class="icon" viewBox="0 0 1024 1024" version="1.1" xmlns="http://www.w3.org/2000/svg" p-id="30082" width="200" height="200"><path d="M454.5 942.1c-9.3 0-18.6-0.3-27.9-0.9-55.8-3.7-109.2-18.2-158.7-43.1-47.8-24.1-90-56.8-125.5-97.3-35.4-40.5-62.3-86.6-79.8-137.2-18.2-52.4-25.5-107.2-21.8-163C44.5 444.8 59 391.4 84 341.9c24.1-47.8 56.8-90 97.2-125.4 40.4-35.4 86.6-62.3 137.2-79.8 52.4-18.2 107.2-25.5 163-21.8 62.8 4.1 122.3 21.9 176.8 52.8 10.3 5.8 13.9 18.9 8 29.2-5.8 10.3-18.9 13.9-29.2 8-48.8-27.7-102.1-43.7-158.4-47.4C274.4 144 97.1 299.2 83.6 503.4c-6.6 99 25.8 194.6 91.1 269.2C240 847.3 330.5 892 429.5 898.5c8.3 0.5 16.5 0.8 24.7 0.8 193.6 0 357.3-150.8 370.4-346.7 2.6-40.5-1.2-80.5-11.2-118.7-0.3-1.1-0.6-2.1-0.9-3.1-0.4-1.3-0.7-2.6-1.1-3.8-3-11.4 3.9-23.1 15.3-26.1s23.1 3.9 26.1 15.3c0.3 1 0.5 2 0.8 3 0.4 1.3 0.7 2.6 1.1 3.9 11.2 42.7 15.5 87.2 12.5 132.4-3.7 55.7-18.2 109-43.2 158.5-24.1 47.8-56.8 90-97.3 125.4-40.5 35.4-86.6 62.3-137.2 79.8-43.5 15.2-88.9 22.9-135 22.9z" fill="#231815" p-id="30083"></path><path d="M451.1 521.6m-229.3 0a229.3 229.3 0 1 0 458.6 0 229.3 229.3 0 1 0-458.6 0Z" fill="#FEE632" p-id="30084"></path><path d="M454.4 795.6c-6 0-12-0.2-18.1-0.6-71.3-4.7-136.6-37-183.6-90.7-47.1-53.8-70.4-122.7-65.7-194 4.7-71.3 37-136.6 90.7-183.6 53.8-47.1 122.7-70.4 194-65.7 40.4 2.6 78.9 14.1 114.2 34.1 10.3 5.8 13.9 18.9 8.1 29.2-5.8 10.3-18.9 13.9-29.2 8.1-29.7-16.8-62-26.5-96-28.7-59.9-4-117.8 15.6-163 55.2s-72.3 94.4-76.2 154.3c-4 59.9 15.6 117.8 55.2 163s94.4 72.3 154.3 76.2c123.7 8.2 231-85.8 239.2-209.5 1.6-24.5-0.6-48.6-6.7-71.6l-0.6-2.1c-0.2-0.7-0.4-1.3-0.6-2-3.3-11.4 3.3-23.2 14.7-26.5 11.4-3.2 23.2 3.3 26.5 14.7 0.2 0.8 0.4 1.6 0.7 2.4 0.2 0.7 0.4 1.3 0.5 1.9l0.1 0.4c7.3 27.6 10 56.4 8.1 85.6-4.7 71.3-37 136.6-90.7 183.6-49.2 43.1-111.1 66.3-175.9 66.3z" fill="#231815" p-id="30085"></path><path d="M742.8 331.1l-261.9 212c-8.3 6.7-20.5 5.4-27.2-2.9l-2.6-3.2c-6.7-8.3-5.4-20.5 2.9-27.2l261.9-212c8.3-6.7 20.5-5.4 27.2 2.9l2.6 3.2c6.6 8.3 5.3 20.6-2.9 27.2z" fill="" p-id="30086"></path><path d="M816.1 359.7L709.6 340 703 234.5 870.6 82.6l-2.9 118.1 117.6 5.7-169.2 153.3zM750.2 304l52.9 9.7 76.8-69.6-56-2.7 1.5-60.1-78.4 71 3.2 51.7zM453.7 648.3c-15.9 0-32-3.2-47.5-9.8-61-26.3-89.2-97.3-62.9-158.3 12.8-29.6 36.3-52.4 66.2-64.2 29.9-11.8 62.6-11.3 92.2 1.5 10.8 4.7 15.8 17.3 11.2 28.1s-17.3 15.8-28.1 11.2c-19.1-8.2-40.2-8.6-59.4-0.9-19.3 7.6-34.4 22.3-42.6 41.4-8.2 19.1-8.6 40.2-0.9 59.5 7.6 19.3 22.4 34.4 41.4 42.6 39.3 17 85.1-1.2 102.1-40.5l0.1-0.1c3.2-7.3 5.2-15.2 6-23.5 0-0.5 0.1-0.9 0.1-1.2 0.4-11.5 9.8-20.7 21.4-20.7 11.8 0 21.4 9.6 21.4 21.4 0 1-0.1 1.8-0.1 2.4v0.3l-0.1 0.9c-1.1 13.1-4.3 25.7-9.5 37.5-19.9 45.2-64.3 72.4-111 72.4z m77.7-113.8c0-0.1 0-0.1 0 0 0-0.1 0 0 0 0z" fill="#231815" p-id="30087"></path></svg>